<svg width="37.29999923706055" height="37.20000076293945" xmlns="http://www.w3.org/2000/svg">
 <style type="text/css">.st0{fill:#00AEEF;}</style>

 <g>
  <title>background</title>
  <rect x="-1" y="-1" width="39.3" height="39.2" id="canvas_background" fill="none"/>
 </g>
 <g>
  <title>Layer 1</title>
  <g id="svg_1">
   <g id="svg_2">
    <path class="st0" d="m14.6,11.1c0,1.7 1.4,3.1 3.2,3.1c1.7,0 3.2,-1.4 3.2,-3.1c0,-1.7 -1.4,-3.1 -3.2,-3.1c-1.8,0 -3.2,1.4 -3.2,3.1" id="svg_3"/>
   </g>
   <path class="st0" d="m1.8,18.1c0,-0.6 0,-1.1 0.1,-1.6c0.5,0.9 1.5,1.7 2.7,2.5c-0.1,2.6 0.1,7 0.8,9.7c-2.3,-3 -3.6,-6.6 -3.6,-10.6m20.8,4.9c4.9,-0.7 8.5,-3 10.5,-4.8c0.8,-0.7 2.3,-3.2 2.3,-4.1c0.2,1.2 0.3,2.5 0.3,4c0,8.3 -5.3,14.9 -13,16.8c-0.4,0 -0.7,0 -1.1,-0.1c-0.3,-0.1 -0.7,-0.6 -0.8,-0.7c-1.6,-2 -2,-4.7 -2.2,-5.3c-0.3,-1 -0.3,-2.8 -0.1,-4.2c0,0 -5.8,-1 -5.8,-0.8c-0.2,1 0,3.1 0.3,4.1c0.3,1.2 0.9,3 1.4,4.3c0.4,1 1.2,2.2 2,3c-0.5,0 -0.9,-0.1 -1.3,-0.2c-0.8,-0.3 -1.7,-1.7 -2,-2.1c-0.7,-1 -1.2,-3 -1.5,-4.1c-0.3,-1.4 -0.7,-4.5 -0.5,-5.9c0,-0.3 0.1,-0.5 0.1,-0.8c2.3,0.7 6.4,1.2 9.4,1.2c0.7,-0.1 1.4,-0.2 2,-0.3m-19.1,-12.4c2.1,-4.5 6.1,-8 11,-9.3c-0.9,0.5 -1.8,1.2 -2.4,1.7c-1.5,1.4 -3.8,4.5 -4.7,6.3c-0.3,0.8 -0.7,1.7 -1.1,2.7c-1.3,-0.6 -2.4,-1.1 -2.8,-1.4m-3.5,8c0,10.3 8.3,18.6 18.6,18.6c10.3,0 18.7,-8.3 18.7,-18.6c0,-5.8 -1.5,-11.6 -6,-14.3c-0.3,-0.1 -1.1,-0.5 -1.2,-0.3c-0.1,0.5 2.8,2.2 2.9,4.5c0,1.1 -1,4.5 -7,6.5c-1.5,0.5 -4.8,0.8 -6.4,0.8c-1.9,0 -5.4,-0.5 -7.2,-1.1c-0.1,0 -0.1,-0.1 -0.2,-0.1c0.6,-4.8 3.1,-9.3 4.9,-10.6c2.9,-2 5,-2.4 5.8,-2.4c0.6,0 1.5,0.1 2.3,0.3c0.3,0.1 1.3,0.5 1.4,0.3c0.3,-0.3 -1.1,-1 -1.5,-1.1c-1.3,-0.6 -3.9,-1.1 -6.5,-1.1c-10.3,0 -18.6,8.3 -18.6,18.6" id="svg_4"/>
  </g>
 </g>
</svg>